<?xml version="1.0" encoding="utf-8"?>
<!-- Generator: Adobe Illustrator 25.0.0, SVG Export Plug-In . SVG Version: 6.00 Build 0)  -->
<svg version="1.1" id="Capa_1" xmlns="http://www.w3.org/2000/svg" xmlns:xlink="http://www.w3.org/1999/xlink" x="0px" y="0px"
	 viewBox="0 0 1024 1024" style="enable-background:new 0 0 1024 1024;" xml:space="preserve">
<style type="text/css">
	.st0{display:none;fill:#FFFFFF;}
</style>
<g>
	<path class="st0" d="M0.67,0c341.33,0,682.67,0,1024,0c0,341.33,0,682.67,0,1024c-341.33,0-682.67,0-1024,0
		C0.67,682.67,0.67,341.33,0.67,0z M416.12,553.97c-8.8-11.88-16.61-22.07-24.04-32.53c-17.01-23.96-14.89-53.78,5.52-74.83
		c14.38-14.82,29-29.4,43.86-43.73c20.62-19.89,49.69-21.94,72.97-5.34c10.29,7.34,20.24,15.15,30.39,22.68
		c8.45,6.27,23.25,0.54,24.88-9.7c2.04-12.81,3.86-25.65,5.78-38.47c3.51-23.34,21.55-44.01,44.85-45.85
		c27.37-2.16,55.17-2.4,82.51-0.18c25.56,2.08,43.14,22.77,46.52,48.65c1.34,10.22,2.8,20.43,4.26,30.63
		c1.85,12.92,7.51,17.57,22.59,17.84c0.15-3.2,0.43-6.43,0.43-9.66c0.02-100.33,0.1-200.66-0.02-300.99
		c-0.05-37.92-25.2-64.38-61.28-64.39c-199.94-0.09-399.88-0.09-599.82,0.01c-34.51,0.02-60.73,26.14-60.77,60.66
		c-0.14,128.33-0.16,256.66,0.01,384.99c0.04,33.98,26.4,59.95,60.19,60.19c10.87,0.08,21.74,0.01,32.93,0.01
		c-4.78,39.18-8.93,77.22-14.33,115.07c-1.83,12.79,2.47,21.36,12.03,28.31c15.69,11.4,36.97,9.61,51.07-4.29
		c44.82-44.18,89.48-88.52,134.56-132.43c3.74-3.65,10.14-6.2,15.39-6.36C369.08,553.57,391.59,553.97,416.12,553.97z M480.3,422.44
		c-5.16,3.19-10.49,5.36-14.37,9.07c-13.71,13.11-27.04,26.63-40.29,40.21c-9.65,9.89-10.12,18-1.86,29.27
		c11.41,15.56,22.87,31.1,34.69,46.34c3.36,4.33,3.46,7.57,1.22,12.52c-6.43,14.18-11.75,28.86-18.23,43.01
		c-1.43,3.12-5.55,6.43-8.88,7c-18.95,3.26-38.05,5.69-57.09,8.46c-13.39,1.95-19.45,9.12-19.49,23.05
		c-0.05,18.33-0.05,36.65,0,54.98c0.04,14.44,6.16,21.39,20.3,23.36c19.06,2.65,38.16,5.11,57.14,8.26c2.99,0.5,6.7,3.6,7.97,6.44
		c6.49,14.52,12.58,29.23,18.1,44.14c1.21,3.27,0.87,8.56-1.06,11.3c-11.1,15.77-23,30.99-34.43,46.54
		c-8.65,11.78-8.13,19.53,2.08,29.99c12.79,13.1,25.77,26.01,38.78,38.9c10.6,10.5,18.45,11.01,30.77,1.93
		c15.26-11.25,30.21-22.92,45.7-33.82c2.75-1.94,8-2.41,11.23-1.21c14.89,5.51,29.61,11.56,44.07,18.13
		c3.05,1.39,6.21,5.56,6.77,8.89c3.23,19,5.61,38.14,8.44,57.21c1.97,13.31,9.31,19.46,23.16,19.52
		c17.63,0.08,35.25,0.05,52.88,0.01c16.24-0.03,22.97-6.02,25.15-21.89c2.54-18.44,5.6-36.82,7.72-55.3
		c0.66-5.77,3.18-7.36,8.14-9.18c13.97-5.14,27.78-10.85,41.26-17.16c5.53-2.59,9.2-2.83,14.22,1.14
		c14.85,11.77,30.15,22.99,45.38,34.26c11.15,8.26,19.25,7.83,29.23-1.89c13.35-13.01,26.49-26.23,39.53-39.56
		c10.11-10.33,10.6-18.36,1.97-30.08c-11.25-15.27-22.47-30.57-34.19-45.48c-3.7-4.71-3.54-8.19-1.16-13.4
		c6.33-13.87,12.05-28.03,17.49-42.28c1.7-4.45,3.16-6.91,8.59-7.53c18.78-2.14,37.45-5.19,56.18-7.81
		c14.84-2.07,21.15-8.98,21.22-23.77c0.09-18.33,0.11-36.65-0.01-54.98c-0.09-13.69-6.37-20.73-20.03-22.74
		c-19.04-2.8-38.14-5.21-57.09-8.52c-3.23-0.56-7.04-4.22-8.49-7.4c-6.34-13.86-11.54-28.25-17.93-42.09
		c-2.45-5.31-2.26-8.71,1.37-13.35c11.68-14.94,22.88-30.25,34.1-45.55c8.56-11.68,8.05-19.74-2.06-30.09
		c-12.79-13.1-25.73-26.05-38.79-38.89c-10.81-10.63-18.48-11.07-30.7-1.97c-15.2,11.33-30.13,23.03-45.58,34
		c-2.77,1.97-8.02,2.6-11.22,1.42c-15.21-5.61-30.2-11.87-45.03-18.42c-2.61-1.15-5.44-4.61-5.9-7.37
		c-3.13-19.02-5.62-38.14-8.39-57.22c-2.14-14.73-8.73-20.71-22.99-20.76c-18.62-0.07-37.25-0.09-55.87,0.01
		c-13.12,0.07-20.22,6.26-22.16,19.37c-2.82,19.07-5.83,38.13-7.97,57.28c-0.65,5.81-3.24,7.59-8.01,9.43
		c-14.2,5.48-28.35,11.18-42.14,17.61c-5.39,2.52-8.79,2.04-13.32-1.51c-14.91-11.7-30.08-23.07-45.4-34.22
		C490.89,427.04,485.87,425.27,480.3,422.44z"/>
	<path d="M416.12,553.97c-24.53,0-47.03-0.4-69.51,0.29c-5.25,0.16-11.65,2.72-15.39,6.36c-45.08,43.91-89.73,88.26-134.56,132.43
		c-14.09,13.89-35.37,15.69-51.07,4.29c-9.57-6.95-13.86-15.52-12.03-28.31c5.4-37.86,9.55-75.89,14.33-115.07
		c-11.19,0-22.06,0.06-32.93-0.01c-33.79-0.24-60.15-26.2-60.19-60.19c-0.17-128.33-0.16-256.66-0.01-384.99
		c0.04-34.52,26.26-60.64,60.77-60.66c199.94-0.09,399.88-0.09,599.82-0.01c36.08,0.02,61.24,26.47,61.28,64.39
		c0.12,100.33,0.05,200.66,0.02,300.99c0,3.23-0.28,6.46-0.43,9.66c-15.08-0.28-20.74-4.92-22.59-17.84
		c-1.46-10.21-2.93-20.41-4.26-30.63c-3.38-25.88-20.96-46.58-46.52-48.65c-27.34-2.22-55.14-1.98-82.51,0.18
		c-23.3,1.84-41.34,22.51-44.85,45.85c-1.93,12.82-3.74,25.67-5.78,38.47c-1.63,10.24-16.42,15.97-24.88,9.7
		c-10.15-7.53-20.11-15.34-30.39-22.68c-23.28-16.6-52.35-14.55-72.97,5.34c-14.86,14.33-29.49,28.91-43.86,43.73
		c-20.42,21.04-22.54,50.87-5.52,74.83C399.5,531.9,407.32,542.09,416.12,553.97z M546.36,342.04
		c33.06,0.37,60.86-26.87,60.96-59.73c0.1-32.31-27.22-59.95-59.58-60.28c-32.41-0.34-59.88,26.82-60.1,59.41
		C487.42,314.49,513.76,341.68,546.36,342.04z M454.74,282.17c-0.01-32.83-26.73-59.96-59.24-60.15
		c-32.95-0.19-59.8,27.04-59.7,60.55c0.1,32.9,26.79,59.52,59.6,59.47C428.05,341.99,454.75,315.05,454.74,282.17z M302.54,282.71
		c0.21-33.49-26.56-60.8-59.49-60.7c-32.58,0.1-59.14,27.03-59.18,60c-0.04,33.07,26.32,59.9,58.99,60.02
		C275.72,342.17,302.34,315.7,302.54,282.71z"/>
	<path d="M480.3,422.44c5.57,2.82,10.59,4.6,14.72,7.61c15.32,11.15,30.5,22.52,45.4,34.22c4.53,3.56,7.93,4.03,13.32,1.51
		c13.79-6.44,27.94-12.13,42.14-17.61c4.78-1.84,7.36-3.62,8.01-9.43c2.14-19.15,5.15-38.21,7.97-57.28
		c1.94-13.11,9.04-19.31,22.16-19.37c18.62-0.09,37.25-0.08,55.87-0.01c14.25,0.05,20.85,6.03,22.99,20.76
		c2.77,19.08,5.26,38.2,8.39,57.22c0.46,2.77,3.29,6.22,5.9,7.37c14.83,6.55,29.82,12.81,45.03,18.42
		c3.21,1.18,8.45,0.55,11.22-1.42c15.45-10.97,30.38-22.68,45.58-34c12.22-9.1,19.89-8.66,30.7,1.97
		c13.05,12.84,26,25.79,38.79,38.89c10.11,10.35,10.62,18.41,2.06,30.09c-11.21,15.3-22.42,30.61-34.1,45.55
		c-3.63,4.64-3.82,8.04-1.37,13.35c6.38,13.84,11.59,28.22,17.93,42.09c1.45,3.18,5.26,6.84,8.49,7.4
		c18.95,3.31,38.05,5.72,57.09,8.52c13.67,2.01,19.94,9.06,20.03,22.74c0.12,18.33,0.1,36.65,0.01,54.98
		c-0.07,14.79-6.39,21.69-21.22,23.77c-18.73,2.62-37.4,5.66-56.18,7.81c-5.43,0.62-6.89,3.08-8.59,7.53
		c-5.44,14.25-11.16,28.41-17.49,42.28c-2.38,5.21-2.54,8.69,1.16,13.4c11.71,14.91,22.94,30.21,34.19,45.48
		c8.63,11.72,8.14,19.74-1.97,30.08c-13.04,13.32-26.18,26.55-39.53,39.56c-9.98,9.72-18.07,10.15-29.23,1.89
		c-15.24-11.28-30.53-22.49-45.38-34.26c-5.02-3.98-8.69-3.73-14.22-1.14c-13.49,6.31-27.29,12.02-41.26,17.16
		c-4.95,1.82-7.47,3.41-8.14,9.18c-2.12,18.49-5.19,36.86-7.72,55.3c-2.18,15.86-8.91,21.86-25.15,21.89
		c-17.63,0.03-35.25,0.07-52.88-0.01c-13.85-0.06-21.19-6.21-23.16-19.52c-2.83-19.07-5.21-38.21-8.44-57.21
		c-0.57-3.32-3.73-7.5-6.77-8.89c-14.46-6.58-29.18-12.62-44.07-18.13c-3.23-1.2-8.48-0.72-11.23,1.21
		c-15.49,10.91-30.45,22.57-45.7,33.82c-12.32,9.08-20.17,8.57-30.77-1.93c-13.01-12.88-25.98-25.8-38.78-38.9
		c-10.21-10.46-10.74-18.21-2.08-29.99c11.43-15.55,23.32-30.76,34.43-46.54c1.93-2.74,2.26-8.03,1.06-11.3
		c-5.52-14.91-11.61-29.63-18.1-44.14c-1.27-2.84-4.97-5.95-7.97-6.44c-18.98-3.14-38.07-5.61-57.14-8.26
		c-14.14-1.97-20.26-8.92-20.3-23.36c-0.05-18.33-0.05-36.65,0-54.98c0.04-13.94,6.1-21.1,19.49-23.05
		c19.04-2.78,38.14-5.2,57.09-8.46c3.33-0.57,7.45-3.88,8.88-7c6.48-14.15,11.81-28.83,18.23-43.01c2.24-4.95,2.14-8.18-1.22-12.52
		c-11.82-15.25-23.28-30.78-34.69-46.34c-8.27-11.27-7.8-19.39,1.86-29.27c13.25-13.58,26.58-27.1,40.29-40.21
		C469.81,427.81,475.14,425.63,480.3,422.44z M662.34,557.08c-61.58-0.22-111.34,49.29-111.96,111.42
		c-0.61,61.34,49.24,111.66,111.14,112.17c61.8,0.51,111.61-48.73,112.12-110.84C774.15,607.35,724.76,557.31,662.34,557.08z"/>
	<path class="st0" d="M546.36,342.04c-32.6-0.36-58.94-27.54-58.72-60.6c0.22-32.59,27.69-59.75,60.1-59.41
		c32.37,0.34,59.68,27.97,59.58,60.28C607.22,315.17,579.42,342.4,546.36,342.04z"/>
	<path class="st0" d="M454.74,282.17c0.01,32.88-26.69,59.82-59.34,59.87c-32.82,0.05-59.5-26.57-59.6-59.47
		c-0.1-33.51,26.75-60.74,59.7-60.55C428.01,222.21,454.74,249.34,454.74,282.17z"/>
	<path class="st0" d="M302.54,282.71c-0.2,32.99-26.83,59.45-59.68,59.33c-32.67-0.13-59.03-26.95-58.99-60.02
		c0.04-32.97,26.6-59.9,59.18-60C275.98,221.91,302.75,249.22,302.54,282.71z"/>
	<path class="st0" d="M662.34,557.08c62.42,0.23,111.81,50.26,111.3,112.76c-0.51,62.11-50.32,111.35-112.12,110.84
		c-61.9-0.51-111.75-50.83-111.14-112.17C551,606.38,600.76,556.86,662.34,557.08z"/>
</g>
</svg>
