<?xml version="1.0" encoding="utf-8"?>
<!-- Generator: Adobe Illustrator 25.0.0, SVG Export Plug-In . SVG Version: 6.00 Build 0)  -->
<svg version="1.1" id="Capa_1" xmlns="http://www.w3.org/2000/svg" xmlns:xlink="http://www.w3.org/1999/xlink" x="0px" y="0px"
	 viewBox="0 0 1024 1024" style="enable-background:new 0 0 1024 1024;" xml:space="preserve">
<style type="text/css">
	.st0{display:none;fill:#FFFFFF;}
</style>
<g>
	<path d="M191.81,8.51c213.85,0,427.71,0,641.56,0c13.11,4.71,27.23,7.66,39.15,14.45c41.11,23.4,59.98,59.92,59.95,106.99
		c-0.13,202.04-0.05,404.08-0.05,606.13c0,52.96-0.24,105.93,0.04,158.89c0.38,72.31-59.18,118.83-119.44,118.49
		c-201.06-1.14-402.12-0.46-603.18-0.4c-26.86,0.01-50.75-8.45-71.48-25.17c-30.88-24.9-43.79-57.87-43.75-97.18
		c0.23-233.1,0.11-466.2,0.11-699.3c0-21.9-0.22-43.81,0.06-65.71c0.68-52.96,30.85-95.07,79.71-111.62
		C180.24,12.12,186.04,10.36,191.81,8.51z M461.55,348.27c0,4.65,0,8.54,0,12.43c0,61.77-0.17,123.54,0.13,185.31
		c0.07,13.64-4.34,24.26-14.13,33.92c-44.67,44.07-88.88,88.6-133.24,132.98c-2.4,2.4-4.71,4.9-7.15,7.44
		c68.66,52.06,166.17,56.45,241.67,3.95c76.82-53.42,108.68-150.16,79.15-238.01C597.76,396.35,514.68,351.95,461.55,348.27z
		 M261.21,675.55c1.99-1.56,3.36-2.42,4.48-3.54c42.79-42.76,85.63-85.46,128.14-128.49c2.72-2.75,4.01-8.04,4.02-12.15
		c0.25-57.87,0.17-115.75,0.17-173.62c0-3.2,0-6.4,0-11.15c-72.02,13.82-125.49,51.24-156.41,116.33
		C206.6,536.63,215.53,607.83,261.21,675.55z M512.59,897.49c87.3,0,174.61,0.04,261.91-0.04c15.58-0.01,28.4-10.34,31.23-24.55
		c2.92-14.65-4.8-29.88-18.91-34.82c-6.27-2.2-13.43-2.53-20.19-2.53c-168.72-0.13-337.45-0.11-506.17-0.08
		c-4.24,0-8.51,0.09-12.72,0.55c-11.4,1.22-19.36,7.52-24.06,17.7c-9.75,21.11,5.65,43.7,29.94,43.73
		C339.94,897.55,426.26,897.49,512.59,897.49z M743.93,761.91c10.12,0,20.25,0.26,30.35-0.06c18.6-0.59,31.85-13.88,31.8-31.49
		c-0.05-17.51-13.47-30.85-32.1-31.16c-20.23-0.33-40.48-0.36-60.71,0.01c-18.64,0.34-31.86,13.77-31.8,31.42
		c0.07,17.51,13.49,30.72,32.1,31.23C723.68,762.13,733.81,761.91,743.93,761.91z M743.59,343.83c-10.77,0-21.54-0.22-32.3,0.05
		c-16.44,0.41-28.89,12.73-29.76,29.05c-0.9,16.8,10.52,31.49,27.23,32.21c23.11,1,46.32,1.01,69.43,0.07
		c17.27-0.7,28.67-15.18,27.86-32.62c-0.73-15.69-13.9-28.37-30.17-28.72C765.12,343.64,754.35,343.82,743.59,343.83z
		 M744.16,520.75c10.77,0,21.54,0.24,32.29-0.06c16.12-0.45,29.08-13.45,29.61-29.27c0.57-17.02-10.7-31.3-27.46-32
		c-23.11-0.98-46.32-0.97-69.43-0.05c-16.84,0.67-28.35,15.02-27.66,31.82c0.68,16.59,13.48,29.18,30.36,29.53
		C722.63,520.95,733.39,520.77,744.16,520.75z M744.05,646.32c10.77,0,21.54,0.23,32.29-0.05c16.16-0.43,29.15-13.36,29.72-29.16
		c0.61-17.02-10.64-31.38-27.35-32.1c-23.11-0.99-46.32-0.98-69.43-0.08c-16.86,0.66-28.41,14.94-27.78,31.72
		c0.62,16.58,13.43,29.27,30.26,29.64C722.51,646.52,733.28,646.33,744.05,646.32z"/>
	<path class="st0" d="M191.81,8.51c-5.77,1.85-11.57,3.61-17.31,5.56c-48.86,16.56-79.03,58.67-79.71,111.62
		c-0.28,21.9-0.06,43.81-0.06,65.71c0,233.1,0.12,466.2-0.11,699.3c-0.04,39.31,12.88,72.28,43.75,97.18
		c20.73,16.72,44.61,25.18,71.48,25.17c201.06-0.06,402.13-0.74,603.18,0.4c60.26,0.34,119.82-46.18,119.44-118.49
		c-0.28-52.96-0.04-105.92-0.04-158.89c0-202.04-0.08-404.08,0.05-606.13c0.03-47.07-18.83-83.59-59.95-106.99
		c-11.93-6.79-26.04-9.74-39.15-14.45c60.82,0,121.64,0,182.46,0c0,335.5,0,670.99,0,1006.49c-335.5,0-670.99,0-1006.49,0
		c0-335.5,0-670.99,0-1006.49C70.17,8.51,130.99,8.51,191.81,8.51z"/>
	<path class="st0" d="M461.55,348.27c53.13,3.67,136.21,48.07,166.44,138.02c29.52,87.85-2.33,184.59-79.15,238.01
		c-75.51,52.5-173.01,48.11-241.67-3.95c2.43-2.54,4.74-5.04,7.15-7.44c44.36-44.38,88.58-88.91,133.24-132.98
		c9.79-9.66,14.2-20.28,14.13-33.92c-0.3-61.77-0.13-123.54-0.13-185.31C461.55,356.82,461.55,352.92,461.55,348.27z"/>
	<path class="st0" d="M261.21,675.55c-45.68-67.72-54.61-138.92-19.59-212.62c30.92-65.08,84.39-102.5,156.41-116.33
		c0,4.75,0,7.95,0,11.15c0,57.87,0.08,115.75-0.17,173.62c-0.02,4.12-1.31,9.41-4.02,12.15c-42.51,43.03-85.35,85.73-128.14,128.49
		C264.57,673.13,263.19,673.99,261.21,675.55z"/>
	<path class="st0" d="M512.59,897.49c-86.32,0-172.65,0.06-258.97-0.04c-24.29-0.03-39.68-22.62-29.94-43.73
		c4.7-10.18,12.66-16.48,24.06-17.7c4.21-0.45,8.48-0.55,12.72-0.55c168.72-0.03,337.45-0.05,506.17,0.08
		c6.76,0.01,13.92,0.34,20.19,2.53c14.11,4.94,21.83,20.17,18.91,34.82c-2.83,14.21-15.65,24.53-31.23,24.55
		C687.2,897.53,599.89,897.49,512.59,897.49z"/>
	<path class="st0" d="M743.93,761.91c-10.12,0-20.24,0.23-30.36-0.05c-18.6-0.51-32.03-13.72-32.1-31.23
		c-0.07-17.65,13.16-31.08,31.8-31.42c20.23-0.37,40.48-0.35,60.71-0.01c18.63,0.31,32.05,13.65,32.1,31.16
		c0.05,17.61-13.19,30.9-31.8,31.49C764.17,762.17,754.05,761.91,743.93,761.91z"/>
	<path class="st0" d="M743.59,343.83c10.77,0,21.54-0.19,32.3,0.04c16.27,0.35,29.43,13.03,30.17,28.72
		c0.81,17.45-10.59,31.92-27.86,32.62c-23.11,0.94-46.32,0.93-69.43-0.07c-16.7-0.72-28.12-15.41-27.23-32.21
		c0.87-16.32,13.31-28.63,29.76-29.05C722.05,343.61,732.82,343.83,743.59,343.83z"/>
	<path class="st0" d="M744.16,520.76c-10.77,0.01-21.53,0.19-32.3-0.04c-16.88-0.36-29.68-12.94-30.36-29.53
		c-0.69-16.8,10.82-31.15,27.66-31.82c23.11-0.92,46.32-0.93,69.43,0.05c16.76,0.71,28.03,14.98,27.46,32
		c-0.53,15.82-13.49,28.83-29.61,29.27C765.7,521,754.92,520.75,744.16,520.76z"/>
	<path class="st0" d="M744.05,646.33c-10.77,0-21.53,0.2-32.29-0.04c-16.83-0.37-29.63-13.06-30.26-29.64
		c-0.63-16.78,10.92-31.06,27.78-31.72c23.11-0.9,46.32-0.91,69.43,0.08c16.71,0.72,27.96,15.08,27.35,32.1
		c-0.57,15.8-13.56,28.74-29.72,29.16C765.59,646.55,754.81,646.32,744.05,646.33z"/>
</g>
</svg>
