<?xml version="1.0" encoding="utf-8"?>
<!-- Generator: Adobe Illustrator 25.0.0, SVG Export Plug-In . SVG Version: 6.00 Build 0)  -->
<svg version="1.1" id="Capa_1" xmlns="http://www.w3.org/2000/svg" xmlns:xlink="http://www.w3.org/1999/xlink" x="0px" y="0px"
	 viewBox="0 0 1024 1024" style="enable-background:new 0 0 1024 1024;" xml:space="preserve">
<style type="text/css">
	.st0{display:none;fill:#FFFFFF;}
</style>
<g>
	<path class="st0" d="M1014.7,613.79c0,133.4,0,266.81,0,400.21c-333.84,0-667.67,0-1001.51,0c0-333.84,0-667.67,0-1001.51
		c79.39,0,158.78,0,238.18,0c-1.76,0.66-3.46,1.61-5.28,1.94c-54.08,9.94-95.93,56.49-99.87,111.15
		c-5.55,76.99,59.28,139.31,136.41,131.12c53.15-5.65,98.13-47.55,107.01-99.68c9.42-55.3-18.36-109.67-68.5-132.69
		c-11.03-5.06-23.06-7.95-34.63-11.84c50.11,0,100.22,0,150.32,0c-1.43,0.71-2.83,1.47-4.28,2.13c-12,5.48-17.87,16.08-15.64,28.25
		c2.2,11.99,10.77,19.59,23.61,20.68c4.2,0.36,8.45,0.34,12.67,0.34c159.71,0.02,319.42,0,479.13,0.03
		c22.5,0,31.63,9.06,31.63,31.15c0.01,166.22,0.01,332.43,0,498.65c0,21.96-9.35,31.25-31.63,31.31c-30.9,0.08-61.8,0.02-92.7,0.02
		c-117.1,0-234.2-0.03-351.3,0.04c-18.08,0.01-29.6,9.94-29.75,25.1c-0.14,14.64,11.83,25.87,28.3,25.87
		c150.93,0.06,301.86,0.1,452.78-0.08c18.1-0.02,34.18-6.53,48.28-18.09C1002.09,646.29,1009.01,630.45,1014.7,613.79z
		 M128.2,961.32c-3.13,0-5.37,0-7.6,0c-26.67,0-53.35-0.18-80.02,0.09c-16.5,0.17-28.02,14.29-25.16,30.08
		c2.35,12.98,12.92,20.54,28.86,20.55c254.71,0.01,509.42,0.01,764.13,0.01c1.63,0,3.26,0.04,4.88-0.03
		c13.6-0.62,23.8-10.93,24.19-24.4c0.45-15.77-10.73-26.26-28.28-26.27c-129.47-0.03-258.94-0.02-388.41-0.02
		c-3.79,0-7.58,0-10.85,0c0-160.93,0-320.56,0-480.2c0.76-0.36,1.52-0.72,2.29-1.09c12.47,12.72,24.98,25.39,37.4,38.16
		c14.33,14.73,31.4,25.25,52.03,25.67c45.16,0.93,90.62,3.32,135.48-0.52c57.34-4.9,88.26-60.72,66.69-114.16
		c-2.14-5.3-0.97-8.11,2.42-11.86c22.23-24.62,44.26-49.43,66.35-74.18c16.89-18.93,33.94-37.72,50.63-56.83
		c11.91-13.62,10.39-30.54-3.08-39.87c-11.32-7.84-24.72-5.58-35.49,6.45c-37.53,41.92-75.04,83.86-112.31,126.02
		c-5.42,6.13-9.47,9.45-18.55,5.37c-7.97-3.58-17.65-4.3-26.62-4.51c-24.06-0.57-48.14-0.42-72.21-0.06
		c-6.97,0.1-12.09-1.57-17.05-6.82c-13.41-14.17-27.42-27.78-41.31-41.49c-16.2-15.97-35.1-27.72-56.39-35.71
		c-25.18-9.45-51.4-10.06-77.83-9.8c-9.63,0.09-17.67,2.87-24.94,9.09c-13.59,11.62-27.26,23.18-41.21,34.37
		c-17.26,13.85-38.35,13.53-55.41-0.42c-7.8-6.38-16.43-12.05-23.09-19.47c-18.69-20.84-41.84-26.95-68.59-23.32
		c-4.51,0.61-9.03,1.11-13.55,1.6c-64.8,6.93-120.06,67.53-120.35,132.76c-0.32,72.22-0.16,144.43-0.03,216.65
		c0.07,35.86,25.12,68.31,59.69,77.95c17.72,4.94,35.27,3.53,53.31-2.28C128.2,795.81,128.2,877.94,128.2,961.32z M674.46,127.6
		c0-0.01,0-0.02,0-0.03c-42.9,0-85.81-0.06-128.71,0.03c-16.81,0.04-28.51,10.76-28.31,25.52c0.2,14.71,12.07,25.2,28.77,25.23
		c31.53,0.06,63.06,0.02,94.59,0.02c53.96,0,107.91-0.07,161.87,0.06c10.53,0.03,19.16-3.11,24.76-12.39
		c10.55-17.46-1.3-38.22-22.3-38.36C761.57,127.41,718.02,127.6,674.46,127.6z M607.62,293.21c20.14,0,40.28,0.07,60.43-0.06
		c4.18-0.03,8.47-0.32,12.52-1.31c11.64-2.84,19.72-13.32,19.56-24.76c-0.17-11.94-8.93-22.25-21.06-24.48
		c-3.49-0.64-7.09-0.92-10.64-0.93c-39.63-0.06-79.27-0.07-118.9,0c-3.87,0.01-7.8,0.33-11.61,1.03
		c-9.86,1.82-16.16,7.9-19.06,17.35c-5.26,17.13,6.92,32.67,26.4,33.04C566.03,293.51,586.83,293.2,607.62,293.21z"/>
	<path d="M1014.7,613.79c-5.69,16.67-12.61,32.51-26.77,44.12c-14.1,11.55-30.18,18.07-48.28,18.09
		c-150.93,0.18-301.86,0.14-452.78,0.08c-16.46-0.01-28.44-11.23-28.3-25.87c0.15-15.16,11.67-25.09,29.75-25.1
		c117.1-0.07,234.2-0.03,351.3-0.04c30.9,0,61.8,0.06,92.7-0.02c22.28-0.06,31.63-9.35,31.63-31.31
		c0.01-166.22,0.01-332.43,0-498.65c0-22.1-9.13-31.15-31.63-31.15C772.61,63.9,612.9,63.91,453.19,63.9
		c-4.22,0-8.47,0.02-12.67-0.34c-12.84-1.1-21.42-8.7-23.61-20.68c-2.23-12.18,3.64-22.78,15.64-28.25
		c1.45-0.66,2.85-1.42,4.28-2.13c170.5,0,341,0,511.49,0c1.77,0.65,3.49,1.53,5.31,1.93c25.07,5.39,43.08,19.77,54.16,42.76
		c2.75,5.71,4.63,11.85,6.9,17.79C1014.7,254.57,1014.7,434.18,1014.7,613.79z"/>
	<path d="M286.5,12.49c11.57,3.89,23.6,6.78,34.63,11.84c50.14,23.01,77.92,77.38,68.5,132.69c-8.88,52.13-53.87,94.04-107.01,99.68
		c-77.13,8.19-141.96-54.12-136.41-131.12C150.15,70.92,192,24.37,246.08,14.43c1.82-0.33,3.52-1.28,5.28-1.94
		C263.08,12.49,274.79,12.49,286.5,12.49z M268.51,206.29c39.77,0.04,71.44-31.12,71.76-70.58c0.32-39.62-31.77-72.21-71.34-72.46
		c-39.11-0.25-72.27,32.91-71.99,72C197.22,174.57,229.13,206.25,268.51,206.29z"/>
	<path class="st0" d="M1014.7,74.96c-2.28-5.94-4.15-12.07-6.9-17.79c-11.08-22.99-29.09-37.37-54.16-42.76
		c-1.82-0.39-3.54-1.27-5.31-1.93c22.13,0,44.25,0,66.38,0C1014.7,33.31,1014.7,54.14,1014.7,74.96z"/>
	<path d="M128.2,961.32c0-83.37,0-165.51,0-248.5c-18.04,5.81-35.59,7.21-53.31,2.28C40.32,705.45,15.26,673,15.2,637.14
		c-0.13-72.22-0.29-144.44,0.03-216.65c0.29-65.22,55.55-125.83,120.35-132.76c4.52-0.48,9.05-0.98,13.55-1.6
		c26.74-3.63,49.9,2.48,68.59,23.32c6.66,7.42,15.29,13.09,23.09,19.47c17.06,13.95,38.15,14.28,55.41,0.42
		c13.95-11.19,27.61-22.74,41.21-34.37c7.27-6.22,15.32-9,24.94-9.09c26.42-0.26,52.65,0.35,77.83,9.8
		c21.29,7.99,40.19,19.74,56.39,35.71c13.9,13.7,27.91,27.31,41.31,41.49c4.97,5.25,10.08,6.93,17.05,6.82
		c24.07-0.36,48.15-0.51,72.21,0.06c8.97,0.21,18.65,0.93,26.62,4.51c9.07,4.08,13.13,0.75,18.55-5.37
		c37.27-42.16,74.78-84.1,112.31-126.02c10.77-12.03,24.17-14.29,35.49-6.45c13.46,9.33,14.98,26.25,3.08,39.87
		c-16.7,19.1-33.74,37.9-50.63,56.83c-22.09,24.75-44.12,49.56-66.35,74.18c-3.39,3.76-4.56,6.57-2.42,11.86
		c21.57,53.44-9.35,109.26-66.69,114.16c-44.86,3.83-90.31,1.44-135.48,0.52c-20.63-0.42-37.7-10.94-52.03-25.67
		c-12.42-12.77-24.93-25.44-37.4-38.16c-0.76,0.36-1.52,0.72-2.29,1.09c0,159.64,0,319.27,0,480.2c3.26,0,7.06,0,10.85,0
		c129.47,0,258.94-0.01,388.41,0.02c17.54,0,28.72,10.5,28.28,26.27c-0.38,13.47-10.59,23.78-24.19,24.4
		c-1.62,0.07-3.25,0.03-4.88,0.03c-254.71,0-509.42,0-764.13-0.01c-15.94,0-26.5-7.57-28.86-20.55
		c-2.86-15.79,8.66-29.92,25.16-30.08c26.67-0.27,53.35-0.08,80.02-0.09C122.83,961.32,125.06,961.32,128.2,961.32z M357.09,960.91
		c0-5.24,0-9.45,0-13.66c0-153.87-0.02-307.74,0.03-461.62c0.01-24.34,12.53-44.44,33.49-52.44c22.63-8.64,42.68-3.53,59.77,13.51
		c12.21,12.17,23.92,24.91,36.83,36.29c5.49,4.84,13.4,9.57,20.32,9.72c41.29,0.89,82.61,0.68,123.91,0.26
		c12.56-0.13,21.19-7.65,25.96-19.04c8.92-21.3-7.14-43.2-32.14-43.47c-29.27-0.32-58.56-0.29-87.83,0.04
		c-9.84,0.11-17.49-3.23-24.26-10.17c-14.55-14.89-29.91-29.02-44.01-44.31c-26.01-28.22-57.88-40.98-95.94-38.35
		c-4.18,0.29-8.87,2-12.17,4.53c-10.57,8.11-20.55,16.98-30.85,25.45c-37.78,31.06-85.5,30.9-123.16-0.35
		c-10.26-8.51-20.46-17.1-30.87-25.43c-2.41-1.92-5.57-4.15-8.37-4.11c-10.69,0.13-21.67-0.27-31.99,2.03
		c-42.12,9.37-69.76,44.51-69.89,87.94c-0.15,53.35-0.04,106.7-0.04,160.05c0,15.61-0.18,31.23,0.05,46.84
		c0.28,18.87,13.74,32.28,31.88,32.19c18.03-0.09,30.33-12.78,30.6-31.83c0.24-16.91,0.34-33.83,0.36-50.74
		c0.05-41.64-0.06-83.28,0.05-124.92c0.05-18.11,9.86-29.42,25.29-29.71c16.15-0.3,26.24,11.23,26.27,30.67
		c0.1,64.4,0.04,128.8,0.04,193.2c0,98.89,0,197.79,0.02,296.68c0,3.45,0.31,6.91,0.48,10.51c21.12,0,41.43,0,62.53,0
		c0-4.1,0-7.62,0-11.13c0-64.74,0-129.47,0-194.21c0-34.81-0.13-69.62,0.1-104.42c0.11-17.25,13.78-28.29,30.58-25.34
		c12.31,2.16,20.11,12.98,20.12,28.24c0.03,98.57,0.02,197.14,0.02,295.71c0,3.75,0,7.51,0,11.37
		C315.74,960.91,335.8,960.91,357.09,960.91z"/>
	<path d="M674.46,127.6c43.55,0,87.11-0.19,130.66,0.08c21,0.13,32.85,20.89,22.3,38.36c-5.61,9.28-14.23,12.42-24.76,12.39
		c-53.96-0.13-107.91-0.06-161.87-0.06c-31.53,0-63.06,0.04-94.59-0.02c-16.7-0.03-28.57-10.53-28.77-25.23
		c-0.2-14.76,11.5-25.49,28.31-25.52c42.9-0.09,85.81-0.03,128.71-0.03C674.46,127.58,674.46,127.59,674.46,127.6z"/>
	<path d="M607.62,293.21c-20.79-0.01-41.59,0.31-62.37-0.1c-19.47-0.38-31.66-15.92-26.4-33.04c2.9-9.44,9.2-15.53,19.06-17.35
		c3.81-0.7,7.73-1.03,11.61-1.03c39.63-0.07,79.27-0.07,118.9,0c3.55,0.01,7.15,0.29,10.64,0.93c12.14,2.23,20.89,12.54,21.06,24.48
		c0.16,11.44-7.91,21.92-19.56,24.76c-4.04,0.98-8.34,1.28-12.52,1.31C647.91,293.28,627.76,293.21,607.62,293.21z"/>
	<path class="st0" d="M268.51,206.29c-39.38-0.04-71.29-31.71-71.57-71.05c-0.28-39.09,32.88-72.25,71.99-72
		c39.57,0.25,71.65,32.85,71.34,72.46C339.96,175.17,308.28,206.32,268.51,206.29z"/>
	<path class="st0" d="M357.09,960.91c-21.29,0-41.36,0-62.83,0c0-3.86,0-7.61,0-11.37c0-98.57,0.01-197.14-0.02-295.71
		c0-15.26-7.8-26.08-20.12-28.24c-16.8-2.95-30.47,8.09-30.58,25.34c-0.23,34.81-0.1,69.62-0.1,104.42
		c-0.01,64.74,0,129.47,0,194.21c0,3.51,0,7.02,0,11.13c-21.1,0-41.4,0-62.53,0c-0.17-3.61-0.48-7.06-0.48-10.51
		c-0.03-98.89-0.02-197.79-0.02-296.68c0-64.4,0.06-128.8-0.04-193.2c-0.03-19.44-10.12-30.97-26.27-30.67
		c-15.43,0.29-25.24,11.59-25.29,29.71c-0.11,41.64,0,83.28-0.05,124.92c-0.02,16.91-0.12,33.83-0.36,50.74
		c-0.27,19.05-12.56,31.74-30.6,31.83c-18.14,0.09-31.59-13.32-31.88-32.19c-0.23-15.61-0.05-31.23-0.05-46.84
		c0-53.35-0.11-106.7,0.04-160.05c0.12-43.43,27.77-78.57,69.89-87.94c10.32-2.3,21.3-1.9,31.99-2.03c2.79-0.03,5.96,2.19,8.37,4.11
		c10.41,8.33,20.61,16.92,30.87,25.43c37.66,31.25,85.38,31.41,123.16,0.35c10.3-8.47,20.28-17.34,30.85-25.45
		c3.31-2.54,7.99-4.24,12.17-4.53c38.06-2.64,69.93,10.12,95.94,38.35c14.1,15.3,29.46,29.42,44.01,44.31
		c6.77,6.93,14.42,10.28,24.26,10.17c29.27-0.33,58.56-0.36,87.83-0.04c24.99,0.27,41.06,22.18,32.14,43.47
		c-4.77,11.39-13.4,18.92-25.96,19.04c-41.3,0.42-82.62,0.63-123.91-0.26c-6.91-0.15-14.83-4.88-20.32-9.72
		c-12.91-11.38-24.62-24.12-36.83-36.29c-17.09-17.03-37.14-22.14-59.77-13.51c-20.96,8-33.48,28.09-33.49,52.44
		c-0.05,153.87-0.03,307.74-0.03,461.62C357.09,951.46,357.09,955.66,357.09,960.91z"/>
</g>
</svg>
